<svg width="466" height="286" viewBox="0 0 466 286" fill="none" xmlns="http://www.w3.org/2000/svg">
<g filter="url(#filter0_dddddd_0_794)">
<rect x="72" y="1" width="333.988" height="126" rx="10" fill="#51459E"/>
<mask id="mask0_0_794" style="mask-type:alpha" maskUnits="userSpaceOnUse" x="73" y="1" width="334" height="126">
<rect x="73.0121" y="1" width="333.988" height="126" rx="10" fill="#51459E"/>
</mask>
<g mask="url(#mask0_0_794)">
<path d="M96.7823 35H98.2703V23.976H96.7823V35ZM102.45 30.968C102.45 29.496 103.394 28.792 104.562 28.792C105.586 28.792 106.21 29.544 106.21 30.776V35H107.666V30.68C107.666 28.568 106.642 27.368 104.786 27.368C103.874 27.368 102.882 27.816 102.45 28.648V27.528H100.994V35H102.45V30.968ZM112.045 35H113.453H113.437L116.557 27.528H115.005L112.749 33.144L110.477 27.528H108.941L112.045 35ZM119.481 35V27.528H118.041V35H119.481ZM118.041 25.448C118.441 25.816 119.081 25.816 119.465 25.448C119.865 25.08 119.865 24.472 119.465 24.104C119.081 23.736 118.441 23.736 118.041 24.104C117.657 24.472 117.657 25.08 118.041 25.448ZM123.932 24.712H122.476V27.528H121.132V28.76H122.476V35H123.932V28.76H125.516V27.528H123.932V24.712ZM128.017 30.68C128.193 29.448 129.121 28.68 130.385 28.68C131.601 28.68 132.481 29.448 132.657 30.68H128.017ZM134.097 31.24C134.097 30.072 133.745 29.144 133.041 28.44C132.353 27.72 131.457 27.368 130.385 27.368C129.297 27.368 128.385 27.72 127.649 28.44C126.929 29.144 126.561 30.072 126.561 31.24C126.561 32.408 126.929 33.352 127.649 34.072C128.385 34.792 129.297 35.16 130.385 35.16C131.873 35.16 133.201 34.456 133.825 33.176L133.217 32.952C132.929 32.84 132.721 32.744 132.577 32.696C132.177 33.416 131.345 33.848 130.433 33.848C129.153 33.848 128.193 33.048 128.017 31.816H134.081C134.097 31.704 134.097 31.512 134.097 31.24ZM139.848 35H146.296V33.56H142.312L145.144 30.216C145.896 29.352 146.28 28.456 146.28 27.512C146.28 26.6 145.96 25.864 145.336 25.288C144.712 24.712 143.928 24.424 143 24.424C142.168 24.424 141.448 24.68 140.84 25.176C140.232 25.672 139.864 26.344 139.72 27.176L141.112 27.512C141.256 26.488 142.04 25.864 143 25.864C144.04 25.864 144.856 26.536 144.856 27.512C144.856 28.056 144.6 28.632 144.088 29.224L139.848 34.36V35ZM155.999 23.464C154.063 23.464 153.135 24.712 153.135 26.776V27.528H151.695V28.76H153.135V35H154.607V28.76H156.335V27.528H154.607V26.776C154.591 25.496 155.055 24.856 155.999 24.856H156.815V23.464H155.999ZM159.419 32.28C159.419 30.168 160.107 28.76 161.467 28.76C161.851 28.76 162.219 28.84 162.571 29.016L162.795 27.656C162.523 27.464 162.091 27.368 161.499 27.368C160.475 27.368 159.787 27.976 159.419 29.208V27.528H157.963V35H159.419V32.28ZM165.716 35V27.528H164.276V35H165.716ZM164.276 25.448C164.676 25.816 165.316 25.816 165.7 25.448C166.1 25.08 166.1 24.472 165.7 24.104C165.316 23.736 164.676 23.736 164.276 24.104C163.892 24.472 163.892 25.08 164.276 25.448ZM169.111 30.68C169.287 29.448 170.215 28.68 171.479 28.68C172.695 28.68 173.575 29.448 173.751 30.68H169.111ZM175.191 31.24C175.191 30.072 174.839 29.144 174.135 28.44C173.447 27.72 172.551 27.368 171.479 27.368C170.391 27.368 169.479 27.72 168.743 28.44C168.023 29.144 167.655 30.072 167.655 31.24C167.655 32.408 168.023 33.352 168.743 34.072C169.479 34.792 170.391 35.16 171.479 35.16C172.967 35.16 174.295 34.456 174.919 33.176L174.311 32.952C174.023 32.84 173.815 32.744 173.671 32.696C173.271 33.416 172.439 33.848 171.527 33.848C170.247 33.848 169.287 33.048 169.111 31.816H175.175C175.191 31.704 175.191 31.512 175.191 31.24ZM178.497 30.968C178.497 29.496 179.441 28.792 180.609 28.792C181.633 28.792 182.257 29.544 182.257 30.776V35H183.713V30.68C183.713 28.568 182.689 27.368 180.833 27.368C179.921 27.368 178.929 27.816 178.497 28.648V27.528H177.041V35H178.497V30.968ZM193.417 35V23.464H191.961V28.648C191.465 27.816 190.457 27.368 189.321 27.368C188.265 27.368 187.369 27.72 186.649 28.44C185.929 29.16 185.561 30.088 185.561 31.256C185.561 32.408 185.929 33.352 186.649 34.072C187.385 34.792 188.281 35.16 189.337 35.16C190.425 35.16 191.465 34.68 191.961 33.848V35H193.417ZM189.465 28.792C190.121 28.792 190.697 29.016 191.193 29.448C191.689 29.88 191.945 30.488 191.945 31.24C191.945 31.992 191.705 32.6 191.209 33.064C190.729 33.512 190.153 33.736 189.465 33.736C188.777 33.736 188.201 33.496 187.737 33.032C187.273 32.568 187.049 31.96 187.049 31.24C187.049 30.52 187.273 29.928 187.737 29.48C188.201 29.016 188.777 28.792 189.465 28.792ZM198.574 31.944C199.198 32.088 199.582 32.376 199.566 32.888C199.55 33.416 199.118 33.816 198.43 33.864C197.966 33.896 197.582 33.816 197.246 33.608C196.91 33.432 196.702 33.16 196.638 32.76H195.31C195.326 33.48 195.614 34.072 196.174 34.504C196.734 34.936 197.374 35.16 198.094 35.16C198.91 35.16 199.582 34.952 200.142 34.552C200.702 34.136 200.99 33.592 200.99 32.92C200.99 31.784 200.35 31.064 199.054 30.744L197.95 30.472C197.486 30.328 197.182 30.136 197.07 29.896C196.99 29.736 196.99 29.544 197.054 29.304C197.166 28.904 197.614 28.632 198.174 28.632C198.766 28.632 199.262 28.952 199.342 29.48H200.734C200.606 28.056 199.534 27.368 198.142 27.368C197.47 27.368 196.878 27.544 196.382 27.912C195.886 28.28 195.598 28.728 195.55 29.272C195.422 30.6 196.126 31.32 197.55 31.704L198.574 31.944ZM214.401 35V27.528H212.961V28.648C212.497 27.832 211.425 27.368 210.337 27.368C209.281 27.368 208.385 27.72 207.649 28.44C206.913 29.16 206.545 30.088 206.545 31.256C206.545 32.408 206.913 33.352 207.649 34.072C208.385 34.792 209.281 35.16 210.337 35.16C211.425 35.16 212.465 34.68 212.961 33.848V35H214.401ZM212.945 31.24C212.945 32.008 212.705 32.616 212.225 33.064C211.745 33.512 211.153 33.736 210.465 33.736C209.777 33.736 209.201 33.496 208.737 33.032C208.273 32.568 208.033 31.96 208.033 31.24C208.033 30.52 208.257 29.928 208.721 29.48C209.185 29.016 209.777 28.792 210.465 28.792C211.121 28.792 211.697 29.016 212.193 29.448C212.689 29.88 212.945 30.488 212.945 31.24ZM218.294 30.968C218.294 29.496 219.238 28.792 220.406 28.792C221.43 28.792 222.054 29.544 222.054 30.776V35H223.51V30.68C223.51 28.568 222.486 27.368 220.63 27.368C219.718 27.368 218.726 27.816 218.294 28.648V27.528H216.838V35H218.294V30.968ZM233.214 35V23.464H231.758V28.648C231.262 27.816 230.254 27.368 229.118 27.368C228.062 27.368 227.166 27.72 226.446 28.44C225.726 29.16 225.358 30.088 225.358 31.256C225.358 32.408 225.726 33.352 226.446 34.072C227.182 34.792 228.078 35.16 229.134 35.16C230.222 35.16 231.262 34.68 231.758 33.848V35H233.214ZM229.262 28.792C229.918 28.792 230.494 29.016 230.99 29.448C231.486 29.88 231.742 30.488 231.742 31.24C231.742 31.992 231.502 32.6 231.006 33.064C230.526 33.512 229.95 33.736 229.262 33.736C228.574 33.736 227.998 33.496 227.534 33.032C227.07 32.568 226.846 31.96 226.846 31.24C226.846 30.52 227.07 29.928 227.534 29.48C227.998 29.016 228.574 28.792 229.262 28.792ZM240.351 36.376C239.999 36.568 239.791 36.68 239.711 36.712C240.415 37.992 241.679 38.728 243.087 38.728C245.807 38.728 247.167 37.112 247.167 33.864V27.528H245.727V28.696C245.263 27.864 244.191 27.368 243.103 27.368C242.047 27.368 241.151 27.736 240.415 28.456C239.679 29.176 239.311 30.12 239.311 31.288C239.311 32.44 239.679 33.368 240.415 34.088C241.151 34.808 242.047 35.16 243.103 35.16C244.191 35.16 245.295 34.632 245.727 33.784C245.727 33.832 245.743 33.912 245.743 33.96C245.743 36.216 244.863 37.352 243.087 37.352C242.239 37.352 241.359 36.888 240.927 36.072L240.351 36.376ZM245.711 31.272C245.711 32.024 245.455 32.616 244.959 33.064C244.463 33.512 243.887 33.736 243.231 33.736C242.543 33.736 241.951 33.512 241.487 33.064C241.023 32.616 240.799 32.024 240.799 31.272C240.799 30.552 241.039 29.96 241.503 29.496C241.967 29.032 242.543 28.792 243.231 28.792C243.919 28.792 244.511 29.016 244.991 29.464C245.471 29.896 245.711 30.504 245.711 31.272ZM250.548 30.68C250.724 29.448 251.652 28.68 252.916 28.68C254.132 28.68 255.012 29.448 255.188 30.68H250.548ZM256.628 31.24C256.628 30.072 256.276 29.144 255.572 28.44C254.884 27.72 253.988 27.368 252.916 27.368C251.828 27.368 250.916 27.72 250.18 28.44C249.46 29.144 249.092 30.072 249.092 31.24C249.092 32.408 249.46 33.352 250.18 34.072C250.916 34.792 251.828 35.16 252.916 35.16C254.404 35.16 255.732 34.456 256.356 33.176L255.748 32.952C255.46 32.84 255.252 32.744 255.108 32.696C254.708 33.416 253.876 33.848 252.964 33.848C251.684 33.848 250.724 33.048 250.548 31.816H256.612C256.628 31.704 256.628 31.512 256.628 31.24ZM260.495 24.712H259.039V27.528H257.695V28.76H259.039V35H260.495V28.76H262.079V27.528H260.495V24.712ZM96.0463 53.776C96.6863 55.232 98.0463 56.16 99.5183 56.16C100.686 56.16 101.63 55.84 102.35 55.2C103.07 54.56 103.438 53.712 103.438 52.64C103.438 51.6 103.102 50.784 102.414 50.192C101.726 49.6 100.878 49.296 99.8703 49.296C99.2303 49.296 98.3663 49.568 97.9023 49.904L98.4783 46.944H102.862V45.568H97.2943L96.3823 50.768L97.2783 51.504C97.8383 51.168 98.2863 50.944 98.6543 50.832C99.0223 50.704 99.4223 50.64 99.8703 50.64C101.102 50.64 102.03 51.36 102.03 52.64C102.03 53.904 101.182 54.768 99.5183 54.768C98.5423 54.768 97.6783 54.128 97.2783 53.104L96.0463 53.776ZM118.546 46.304C117.506 45.328 116.258 44.848 114.818 44.848C113.266 44.848 111.938 45.392 110.866 46.496C109.794 47.6 109.25 48.928 109.25 50.512C109.25 52.08 109.794 53.408 110.866 54.512C111.938 55.616 113.266 56.16 114.818 56.16C118.066 56.16 120.034 54.24 120.034 50.464H115.202V51.76H118.338C118.29 52.672 117.954 53.392 117.298 53.936C116.642 54.464 115.826 54.736 114.818 54.736C113.682 54.736 112.706 54.32 111.922 53.504C111.138 52.688 110.738 51.68 110.738 50.512C110.738 49.344 111.138 48.336 111.922 47.52C112.706 46.688 113.682 46.272 114.818 46.272C115.826 46.272 116.706 46.608 117.474 47.296L118.546 46.304ZM129.216 47.824C129.216 46.08 128.064 44.976 126.224 44.976H122.064V56H126.576C127.552 56 128.336 55.696 128.928 55.088C129.52 54.464 129.808 53.712 129.808 52.816C129.808 52.224 129.616 51.664 129.248 51.12C128.88 50.576 128.416 50.24 127.824 50.128C128.752 49.776 129.216 49.008 129.216 47.824ZM123.568 46.352H126.064C127.072 46.352 127.696 46.912 127.696 47.872C127.696 48.832 127.168 49.552 126.224 49.552H123.568V46.352ZM126.464 50.864C126.992 50.864 127.424 51.072 127.76 51.472C128.096 51.872 128.272 52.32 128.272 52.8C128.272 53.776 127.552 54.608 126.512 54.608H123.568V50.864H126.464ZM136.939 51.68C137.115 50.448 138.043 49.68 139.307 49.68C140.523 49.68 141.403 50.448 141.579 51.68H136.939ZM143.019 52.24C143.019 51.072 142.667 50.144 141.963 49.44C141.275 48.72 140.379 48.368 139.307 48.368C138.219 48.368 137.307 48.72 136.571 49.44C135.851 50.144 135.483 51.072 135.483 52.24C135.483 53.408 135.851 54.352 136.571 55.072C137.307 55.792 138.219 56.16 139.307 56.16C140.795 56.16 142.123 55.456 142.747 54.176L142.139 53.952C141.851 53.84 141.643 53.744 141.499 53.696C141.099 54.416 140.267 54.848 139.355 54.848C138.075 54.848 137.115 54.048 136.939 52.816H143.003C143.019 52.704 143.019 52.512 143.019 52.24ZM146.649 51.904L143.689 56H145.401L147.497 53.104L149.577 56H151.305L148.345 51.904L150.793 48.528H149.049L147.497 50.72L145.961 48.528H144.217L146.649 51.904ZM154.729 45.712H153.273V48.528H151.929V49.76H153.273V56H154.729V49.76H156.313V48.528H154.729V45.712ZM159.419 53.28C159.419 51.168 160.107 49.76 161.467 49.76C161.851 49.76 162.219 49.84 162.571 50.016L162.795 48.656C162.523 48.464 162.091 48.368 161.499 48.368C160.475 48.368 159.787 48.976 159.419 50.208V48.528H157.963V56H159.419V53.28ZM171.448 56V48.528H170.008V49.648C169.544 48.832 168.472 48.368 167.384 48.368C166.328 48.368 165.432 48.72 164.696 49.44C163.96 50.16 163.592 51.088 163.592 52.256C163.592 53.408 163.96 54.352 164.696 55.072C165.432 55.792 166.328 56.16 167.384 56.16C168.472 56.16 169.512 55.68 170.008 54.848V56H171.448ZM169.992 52.24C169.992 53.008 169.752 53.616 169.272 54.064C168.792 54.512 168.2 54.736 167.512 54.736C166.824 54.736 166.248 54.496 165.784 54.032C165.32 53.568 165.08 52.96 165.08 52.24C165.08 51.52 165.304 50.928 165.768 50.48C166.232 50.016 166.824 49.792 167.512 49.792C168.168 49.792 168.744 50.016 169.24 50.448C169.736 50.88 169.992 51.488 169.992 52.24ZM180.761 52.944C181.385 53.088 181.769 53.376 181.753 53.888C181.737 54.416 181.305 54.816 180.617 54.864C180.153 54.896 179.769 54.816 179.433 54.608C179.097 54.432 178.889 54.16 178.825 53.76H177.497C177.513 54.48 177.801 55.072 178.361 55.504C178.921 55.936 179.561 56.16 180.281 56.16C181.097 56.16 181.769 55.952 182.329 55.552C182.889 55.136 183.177 54.592 183.177 53.92C183.177 52.784 182.537 52.064 181.241 51.744L180.137 51.472C179.673 51.328 179.369 51.136 179.257 50.896C179.177 50.736 179.177 50.544 179.241 50.304C179.353 49.904 179.801 49.632 180.361 49.632C180.953 49.632 181.449 49.952 181.529 50.48H182.921C182.793 49.056 181.721 48.368 180.329 48.368C179.657 48.368 179.065 48.544 178.569 48.912C178.073 49.28 177.785 49.728 177.737 50.272C177.609 51.6 178.313 52.32 179.737 52.704L180.761 52.944ZM185.072 48.528V59.632H186.528V54.88C186.992 55.712 188.048 56.16 189.136 56.16C190.192 56.16 191.072 55.808 191.792 55.088C192.512 54.368 192.88 53.44 192.88 52.288C192.88 51.12 192.512 50.176 191.792 49.456C191.072 48.736 190.176 48.368 189.136 48.368C188.064 48.368 187.024 48.864 186.528 49.696V48.528H185.072ZM186.544 52.304C186.544 51.536 186.784 50.928 187.248 50.48C187.728 50.016 188.304 49.792 188.992 49.792C189.68 49.792 190.24 50.032 190.704 50.496C191.168 50.96 191.408 51.568 191.408 52.304C191.408 53.76 190.384 54.736 188.992 54.736C188.336 54.736 187.776 54.528 187.28 54.096C186.784 53.664 186.544 53.056 186.544 52.304ZM202.182 56V48.528H200.742V49.648C200.278 48.832 199.206 48.368 198.118 48.368C197.062 48.368 196.166 48.72 195.43 49.44C194.694 50.16 194.326 51.088 194.326 52.256C194.326 53.408 194.694 54.352 195.43 55.072C196.166 55.792 197.062 56.16 198.118 56.16C199.206 56.16 200.246 55.68 200.742 54.848V56H202.182ZM200.726 52.24C200.726 53.008 200.486 53.616 200.006 54.064C199.526 54.512 198.934 54.736 198.246 54.736C197.558 54.736 196.982 54.496 196.518 54.032C196.054 53.568 195.814 52.96 195.814 52.24C195.814 51.52 196.038 50.928 196.502 50.48C196.966 50.016 197.558 49.792 198.246 49.792C198.902 49.792 199.478 50.016 199.974 50.448C200.47 50.88 200.726 51.488 200.726 52.24ZM208.075 48.368C206.971 48.368 206.043 48.72 205.275 49.44C204.507 50.16 204.123 51.088 204.123 52.24C204.123 53.392 204.507 54.336 205.275 55.072C206.043 55.792 206.971 56.16 208.075 56.16C209.259 56.16 210.219 55.76 210.971 54.944L209.851 54.016C209.387 54.512 208.795 54.752 208.075 54.752C207.387 54.752 206.795 54.512 206.299 54.048C205.803 53.584 205.563 52.976 205.563 52.24C205.563 51.52 205.803 50.928 206.299 50.48C206.795 50.016 207.387 49.792 208.075 49.792C208.795 49.792 209.387 50.032 209.851 50.496L210.955 49.568C210.219 48.768 209.259 48.368 208.075 48.368ZM213.579 51.68C213.755 50.448 214.683 49.68 215.947 49.68C217.163 49.68 218.043 50.448 218.219 51.68H213.579ZM219.659 52.24C219.659 51.072 219.307 50.144 218.603 49.44C217.915 48.72 217.019 48.368 215.947 48.368C214.859 48.368 213.947 48.72 213.211 49.44C212.491 50.144 212.123 51.072 212.123 52.24C212.123 53.408 212.491 54.352 213.211 55.072C213.947 55.792 214.859 56.16 215.947 56.16C217.435 56.16 218.763 55.456 219.387 54.176L218.779 53.952C218.491 53.84 218.283 53.744 218.139 53.696C217.739 54.416 216.907 54.848 215.995 54.848C214.715 54.848 213.755 54.048 213.579 52.816H219.643C219.659 52.704 219.659 52.512 219.659 52.24ZM221.686 55.888C222.086 56.256 222.758 56.256 223.158 55.888C223.59 55.504 223.59 54.832 223.158 54.448C222.758 54.064 222.086 54.064 221.686 54.448C221.286 54.832 221.286 55.504 221.686 55.888Z" fill="#DEE1E6"/>
<path d="M400.121 122.46C403.607 122.46 406.431 119.67 406.431 116.226C402.946 116.226 400.121 119.017 400.121 122.46Z" fill="#84E8F4"/>
<path d="M376.387 81.4407C376.387 85.7616 379.932 89.258 384.299 89.258C384.299 84.9436 380.753 81.4407 376.387 81.4407Z" fill="#B3B3B3"/>
<path d="M374.21 34.7545C368.321 34.7545 363.547 39.4713 363.547 45.2898C369.436 45.2898 374.21 40.573 374.21 34.7545Z" fill="#84E8F4"/>
<path d="M365.49 48.0143C365.49 51.7085 368.521 54.6969 372.254 54.6969C372.26 51.0027 369.229 48.0143 365.49 48.0143Z" fill="#84E8F4"/>
<path d="M360.676 48.1265C357.064 48.1265 354.14 51.0159 354.14 54.5848C357.752 54.5848 360.676 51.6954 360.676 48.1265Z" fill="#DEE1E6"/>
<path d="M396.336 10.5042C396.336 5.56316 392.283 1.55225 387.276 1.55225C387.282 6.49992 391.335 10.5042 396.336 10.5042Z" fill="#84E8F4"/>
<path d="M314.407 25.8618C311.243 25.8618 308.672 28.4016 308.672 31.5286C311.843 31.522 314.407 28.9887 314.407 25.8618Z" fill="#84E8F4"/>
<path d="M396.971 57.5864C391.269 57.5864 386.649 62.1515 386.649 67.7852C392.351 67.7852 396.971 63.2202 396.971 57.5864Z" fill="#84E8F4"/>
<path d="M360.964 2.51538C357.038 2.51538 353.853 5.6621 353.853 9.54108C357.779 9.54108 360.964 6.39436 360.964 2.51538Z" fill="#DEE1E6"/>
<path d="M408.721 0.648438C402.705 0.648438 397.824 5.47078 397.824 11.4146C403.847 11.4146 408.721 6.59225 408.721 0.648438Z" fill="#84E8F4"/>
<path d="M397.545 102.346C397.545 108.607 402.679 113.68 409.008 113.68C409.008 107.419 403.874 102.346 397.545 102.346Z" fill="#DEE1E6"/>
<path d="M400.062 99.8527C403.607 99.8527 406.485 97.0094 406.485 93.5065C402.94 93.5065 400.062 96.3497 400.062 99.8527Z" fill="#84E8F4"/>
<path d="M351.102 57.5864C345.4 57.5864 340.78 62.1515 340.78 67.7852C346.482 67.7852 351.102 63.2202 351.102 57.5864Z" fill="#DEE1E6"/>
<path d="M342.556 48.0143C342.556 51.7085 345.587 54.6969 349.32 54.6969C349.326 51.0027 346.295 48.0143 342.556 48.0143Z" fill="#DEE1E6"/>
<path d="M365.951 93.7903C365.951 96.9832 368.568 99.5692 371.799 99.5692C371.799 96.3763 369.182 93.7903 365.951 93.7903Z" fill="#84E8F4"/>
<path d="M387.684 47.2754C387.684 51.7811 391.383 55.4358 395.943 55.4358C395.936 50.9301 392.244 47.2754 387.684 47.2754Z" fill="#84E8F4"/>
<path d="M397.545 57.019C397.545 63.2795 402.679 68.3525 409.008 68.3525C409.008 62.0921 403.874 57.019 397.545 57.019Z" fill="#DEE1E6"/>
<path d="M399.261 55.3236C403.694 55.3236 407.286 51.7745 407.286 47.3942C402.853 47.3876 399.261 50.9433 399.261 55.3236Z" fill="#84E8F4"/>
<path d="M400.182 36.9645C400.182 40.3421 402.953 43.0864 406.371 43.0864C406.371 39.7022 403.6 36.9645 400.182 36.9645Z" fill="#B3B3B3"/>
<path d="M341.067 23.8762C341.067 29.1933 345.433 33.5077 350.815 33.5077C350.815 28.1906 346.448 23.8762 341.067 23.8762Z" fill="#84E8F4"/>
<path d="M326.732 13.6774C322.613 13.6774 319.281 16.9758 319.281 21.0461C323.401 21.0461 326.732 17.7477 326.732 13.6774Z" fill="#DEE1E6"/>
<path d="M319.855 25.5781C319.855 29.0217 322.68 31.8122 326.165 31.8122C326.165 28.3686 323.341 25.5781 319.855 25.5781Z" fill="#84E8F4"/>
<path d="M339.064 24.1598C333.996 24.1598 329.89 28.2169 329.89 33.2239C334.958 33.2239 339.064 29.1668 339.064 24.1598Z" fill="#B3B3B3"/>
<path d="M386.361 22.7415C392.377 22.7415 397.258 17.9192 397.258 11.9753C391.242 11.9753 386.361 16.7977 386.361 22.7415Z" fill="#DEE1E6"/>
<path d="M384.472 44.1023C384.472 39.5966 380.773 35.9419 376.213 35.9419C376.213 40.4476 379.912 44.1023 384.472 44.1023Z" fill="#DEE1E6"/>
<path d="M397.484 34.4114C391.215 34.4114 386.134 39.4316 386.134 45.6327C392.403 45.6327 397.484 40.6125 397.484 34.4114Z" fill="#84E8F4"/>
<path d="M388.138 25.0636C388.138 29.0679 391.422 32.3136 395.475 32.3136C395.475 28.3159 392.19 25.0636 388.138 25.0636Z" fill="#B3B3B3"/>
<path d="M349.266 14.0732C345.594 14.0732 342.616 17.0155 342.616 20.6438C346.289 20.6438 349.266 17.7015 349.266 14.0732Z" fill="#84E8F4"/>
<path d="M339.004 21.8377C339.004 16.8967 334.951 12.8857 329.944 12.8857C329.944 17.8268 334.003 21.8377 339.004 21.8377Z" fill="#DEE1E6"/>
<path d="M373.635 12.6549C368.381 12.6549 364.121 16.8637 364.121 22.0621C369.376 22.0621 373.635 17.8533 373.635 12.6549Z" fill="#84E8F4"/>
<path d="M384.699 21.6662C384.699 16.9098 380.799 13.0573 375.986 13.0573C375.986 17.8136 379.885 21.6662 384.699 21.6662Z" fill="#84E8F4"/>
<path d="M372.714 81.553C368.468 81.553 365.03 84.9504 365.03 89.146C369.276 89.146 372.714 85.7486 372.714 81.553Z" fill="#DEE1E6"/>
<path d="M365.951 71.1299C365.951 74.3228 368.568 76.9088 371.799 76.9088C371.799 73.7159 369.182 71.1299 365.951 71.1299Z" fill="#84E8F4"/>
<path d="M361.25 70.2195C357.004 70.2195 353.566 73.6169 353.566 77.8125C357.812 77.8125 361.25 74.4151 361.25 70.2195Z" fill="#DEE1E6"/>
</g>
<rect x="94.2662" y="73" width="107.281" height="34" rx="5" fill="#84E8F4"/>
<path d="M111.054 98V88.354H109.78V98H111.054ZM116.757 91.294C116.043 91.294 114.979 91.658 114.587 92.456V91.462H113.369V98H114.587V94.458C114.587 93.044 115.679 92.498 116.589 92.498C117.499 92.498 118.171 93.198 118.171 94.29V98H119.389V94.22C119.403 92.386 118.381 91.294 116.757 91.294ZM123.749 96.446L121.733 91.462H120.431L123.147 98H124.337L127.067 91.462H125.751L123.749 96.446ZM128.942 89.866C129.418 89.866 129.81 89.516 129.81 89.054C129.81 88.592 129.418 88.242 128.942 88.242C128.48 88.242 128.088 88.592 128.088 89.054C128.088 89.516 128.48 89.866 128.942 89.866ZM129.558 98V91.462H128.34V98H129.558ZM133.397 91.462V88.998H132.179V91.462H131.003V92.512H132.179V98H133.397V92.512H134.811V91.462H133.397ZM142.211 94.71C142.211 92.638 140.825 91.294 138.963 91.294C137.101 91.294 135.603 92.638 135.603 94.71C135.603 96.782 137.101 98.168 138.963 98.168C140.223 98.168 141.399 97.552 141.959 96.418L140.909 95.998C140.531 96.656 139.803 97.02 139.005 97.02C137.885 97.02 137.045 96.418 136.863 95.256H142.183C142.197 95.074 142.211 94.892 142.211 94.71ZM136.877 94.206C137.073 93.03 137.857 92.442 138.963 92.442C140.041 92.442 140.839 93.086 140.993 94.206H136.877ZM153.376 95.676L148.952 88.354H147.692V98H148.966V90.65L153.418 98H154.65V88.354H153.376V95.676ZM159.868 98.168C161.73 98.168 163.298 96.796 163.298 94.724C163.298 92.652 161.73 91.294 159.868 91.294C158.006 91.294 156.452 92.652 156.452 94.724C156.452 96.796 158.006 98.168 159.868 98.168ZM159.868 97.02C158.678 97.02 157.684 96.082 157.684 94.724C157.684 93.38 158.678 92.442 159.868 92.442C161.072 92.442 162.08 93.38 162.08 94.724C162.08 96.082 161.072 97.02 159.868 97.02ZM171.534 96.11L169.854 91.462H168.664L166.998 96.11L165.332 91.462H164.016L166.508 98H167.516L169.252 93.142L171.058 98H172.08L174.516 91.462H173.2L171.534 96.11ZM177.055 95.214L177.181 88.354H175.963L176.089 95.214H177.055ZM176.551 98.168C177.041 98.168 177.461 97.818 177.461 97.328C177.461 96.824 177.041 96.46 176.551 96.46C176.075 96.46 175.669 96.824 175.669 97.328C175.669 97.818 176.075 98.168 176.551 98.168Z" fill="#51459E"/>
</g>
<defs>
<filter id="filter0_dddddd_0_794" x="0.261134" y="0.178391" width="465" height="285.58" filterUnits="userSpaceOnUse" color-interpolation-filters="sRGB">
<feFlood flood-opacity="0" result="BackgroundImageFix"/>
<feColorMatrix in="SourceAlpha" type="matrix" values="0 0 0 0 0 0 0 0 0 0 0 0 0 0 0 0 0 0 127 0" result="hardAlpha"/>
<feOffset dx="-0.124794" dy="1.73626"/>
<feGaussianBlur stdDeviation="1.27894"/>
<feColorMatrix type="matrix" values="0 0 0 0 0.192157 0 0 0 0 0.235294 0 0 0 0 0.443137 0 0 0 0.01 0"/>
<feBlend mode="normal" in2="BackgroundImageFix" result="effect1_dropShadow_0_794"/>
<feColorMatrix in="SourceAlpha" type="matrix" values="0 0 0 0 0 0 0 0 0 0 0 0 0 0 0 0 0 0 127 0" result="hardAlpha"/>
<feOffset dx="-0.549093" dy="7.63955"/>
<feGaussianBlur stdDeviation="2.64815"/>
<feColorMatrix type="matrix" values="0 0 0 0 0.192157 0 0 0 0 0.235294 0 0 0 0 0.443137 0 0 0 0.0157037 0"/>
<feBlend mode="normal" in2="effect1_dropShadow_0_794" result="effect2_dropShadow_0_794"/>
<feColorMatrix in="SourceAlpha" type="matrix" values="0 0 0 0 0 0 0 0 0 0 0 0 0 0 0 0 0 0 127 0" result="hardAlpha"/>
<feOffset dx="-1.34777" dy="18.7516"/>
<feGaussianBlur stdDeviation="5.28125"/>
<feColorMatrix type="matrix" values="0 0 0 0 0.192157 0 0 0 0 0.235294 0 0 0 0 0.443137 0 0 0 0.02 0"/>
<feBlend mode="normal" in2="effect2_dropShadow_0_794" result="effect3_dropShadow_0_794"/>
<feColorMatrix in="SourceAlpha" type="matrix" values="0 0 0 0 0 0 0 0 0 0 0 0 0 0 0 0 0 0 127 0" result="hardAlpha"/>
<feOffset dx="-2.59571" dy="36.1142"/>
<feGaussianBlur stdDeviation="10.3519"/>
<feColorMatrix type="matrix" values="0 0 0 0 0.192157 0 0 0 0 0.235294 0 0 0 0 0.443137 0 0 0 0.0242963 0"/>
<feBlend mode="normal" in2="effect3_dropShadow_0_794" result="effect4_dropShadow_0_794"/>
<feColorMatrix in="SourceAlpha" type="matrix" values="0 0 0 0 0 0 0 0 0 0 0 0 0 0 0 0 0 0 127 0" result="hardAlpha"/>
<feOffset dx="-4.36778" dy="60.7692"/>
<feGaussianBlur stdDeviation="19.0336"/>
<feColorMatrix type="matrix" values="0 0 0 0 0.192157 0 0 0 0 0.235294 0 0 0 0 0.443137 0 0 0 0.0303704 0"/>
<feBlend mode="normal" in2="effect4_dropShadow_0_794" result="effect5_dropShadow_0_794"/>
<feColorMatrix in="SourceAlpha" type="matrix" values="0 0 0 0 0 0 0 0 0 0 0 0 0 0 0 0 0 0 127 0" result="hardAlpha"/>
<feOffset dx="-6.73887" dy="93.7581"/>
<feGaussianBlur stdDeviation="32.5"/>
<feColorMatrix type="matrix" values="0 0 0 0 0.192157 0 0 0 0 0.235294 0 0 0 0 0.443137 0 0 0 0.04 0"/>
<feBlend mode="normal" in2="effect5_dropShadow_0_794" result="effect6_dropShadow_0_794"/>
<feBlend mode="normal" in="SourceGraphic" in2="effect6_dropShadow_0_794" result="shape"/>
</filter>
</defs>
</svg>
