<svg width="77" height="81" viewBox="0 0 77 81" fill="none" xmlns="http://www.w3.org/2000/svg">
<rect x="13" width="50" height="50" rx="10" fill="#ECEFF7"/>
<rect opacity="0.3" x="30" y="17" width="4" height="4" rx="1" fill="#51459E"/>
<path fill-rule="evenodd" clip-rule="evenodd" d="M37 17C36.4477 17 36 17.4477 36 18V20C36 20.5523 36.4477 21 37 21H39C39.5523 21 40 20.5523 40 20V18C40 17.4477 39.5523 17 39 17H37ZM31 23C30.4477 23 30 23.4477 30 24V26C30 26.5523 30.4477 27 31 27H33C33.5523 27 34 26.5523 34 26V24C34 23.4477 33.5523 23 33 23H31ZM36 24C36 23.4477 36.4477 23 37 23H39C39.5523 23 40 23.4477 40 24V26C40 26.5523 39.5523 27 39 27H37C36.4477 27 36 26.5523 36 26V24ZM43 17C42.4477 17 42 17.4477 42 18V20C42 20.5523 42.4477 21 43 21H45C45.5523 21 46 20.5523 46 20V18C46 17.4477 45.5523 17 45 17H43ZM42 24C42 23.4477 42.4477 23 43 23H45C45.5523 23 46 23.4477 46 24V26C46 26.5523 45.5523 27 45 27H43C42.4477 27 42 26.5523 42 26V24ZM31 29C30.4477 29 30 29.4477 30 30V32C30 32.5523 30.4477 33 31 33H33C33.5523 33 34 32.5523 34 32V30C34 29.4477 33.5523 29 33 29H31ZM36 30C36 29.4477 36.4477 29 37 29H39C39.5523 29 40 29.4477 40 30V32C40 32.5523 39.5523 33 39 33H37C36.4477 33 36 32.5523 36 32V30ZM43 29C42.4477 29 42 29.4477 42 30V32C42 32.5523 42.4477 33 43 33H45C45.5523 33 46 32.5523 46 32V30C46 29.4477 45.5523 29 45 29H43Z" fill="#51459E"/>
<path d="M25.6934 80L22.5734 71.732H21.2534L18.1214 80H19.4174L20.1854 77.912H23.6294L24.3974 80H25.6934ZM21.9134 73.232L23.2334 76.832H20.5814L21.9134 73.232ZM27.7434 80V71.348H26.5674V80H27.7434ZM30.6848 80V71.348H29.5088V80H30.6848ZM40.5625 71.732H35.6785V80H36.9145V76.496H39.8065V75.368H36.9145V72.86H40.5625V71.732ZM42.4367 73.112C42.8807 73.112 43.2407 72.788 43.2407 72.356C43.2407 71.924 42.8807 71.6 42.4367 71.6C42.0047 71.6 41.6327 71.924 41.6327 72.356C41.6327 72.788 42.0047 73.112 42.4367 73.112ZM43.0247 80V74.396H41.8487V80H43.0247ZM45.9661 80V71.348H44.7901V80H45.9661ZM53.0835 77.168C53.0835 75.404 51.8715 74.252 50.2755 74.252C48.6795 74.252 47.3835 75.404 47.3835 77.18C47.3835 78.956 48.6555 80.144 50.2755 80.144C51.3435 80.144 52.3515 79.64 52.8435 78.704L51.9075 78.236C51.5955 78.752 50.9835 79.052 50.3235 79.052C49.4235 79.052 48.7515 78.584 48.5955 77.672H53.0595C53.0715 77.492 53.0835 77.324 53.0835 77.168ZM48.6075 76.724C48.7755 75.788 49.4235 75.344 50.2875 75.344C51.1515 75.344 51.7875 75.848 51.9075 76.724H48.6075ZM56.186 80.144C57.338 80.144 58.394 79.496 58.394 78.428C58.394 77.828 58.13 77.084 56.93 76.784L56.078 76.58C55.73 76.496 55.406 76.304 55.406 75.956C55.406 75.572 55.742 75.248 56.234 75.248C56.654 75.248 57.074 75.524 57.074 75.932H58.202C58.202 74.756 57.17 74.252 56.21 74.252C55.046 74.252 54.218 75.008 54.218 75.92C54.218 76.748 54.698 77.288 55.742 77.564L56.498 77.744C56.918 77.84 57.218 78.032 57.218 78.404C57.218 78.824 56.822 79.148 56.174 79.148C55.538 79.148 55.142 78.764 55.142 78.32H54.05C54.074 79.496 55.142 80.144 56.186 80.144Z" fill="#7987A5"/>
</svg>
