<svg width="90" height="91" viewBox="0 0 90 91" fill="none" xmlns="http://www.w3.org/2000/svg">
<g filter="url(#filter0_d_0_5311)">
<rect x="20" y="10" width="50" height="50" rx="10" fill="#51459E"/>
</g>
<rect x="37" y="27" width="7" height="7" rx="1.5" fill="#DEE1E6"/>
<path opacity="0.3" fill-rule="evenodd" clip-rule="evenodd" d="M46 28.5C46 27.6716 46.6716 27 47.5 27H51.5C52.3284 27 53 27.6716 53 28.5V32.5C53 33.3284 52.3284 34 51.5 34H47.5C46.6716 34 46 33.3284 46 32.5V28.5ZM37 37.5C37 36.6716 37.6716 36 38.5 36H42.5C43.3284 36 44 36.6716 44 37.5V41.5C44 42.3284 43.3284 43 42.5 43H38.5C37.6716 43 37 42.3284 37 41.5V37.5ZM47.5 36C46.6716 36 46 36.6716 46 37.5V41.5C46 42.3284 46.6716 43 47.5 43H51.5C52.3284 43 53 42.3284 53 41.5V37.5C53 36.6716 52.3284 36 51.5 36H47.5Z" fill="#DEE1E6"/>
<path fill-rule="evenodd" clip-rule="evenodd" d="M47.584 10H60C65.5228 10 70 14.4772 70 20V31.1182C68.2704 31.6904 66.4214 32 64.5 32C54.835 32 47 24.165 47 14.5C47 12.9442 47.203 11.4359 47.584 10Z" fill="#84E8F4"/>
<path d="M15.3367 81.732V90H18.5527C20.9167 90 22.2967 88.224 22.2967 85.884C22.2967 83.532 20.9167 81.732 18.5527 81.732H15.3367ZM16.5727 88.872V82.86H18.5527C20.2087 82.86 21.0607 84.204 21.0607 85.884C21.0607 87.564 20.2087 88.872 18.5527 88.872H16.5727ZM28.1129 85.236C27.7529 84.6 26.9849 84.252 26.1689 84.252C24.5849 84.252 23.3969 85.524 23.3969 87.192C23.3969 88.92 24.6569 90.144 26.1209 90.144C26.9849 90.144 27.7529 89.7 28.1129 89.052V90H29.2889V84.396H28.1129V85.236ZM26.3249 89.04C25.3409 89.04 24.5849 88.2 24.5849 87.192C24.5849 86.196 25.3409 85.356 26.3009 85.356C27.2009 85.356 28.1009 86.112 28.1009 87.192C28.1009 88.248 27.2609 89.04 26.3249 89.04ZM32.7856 90.144C33.9376 90.144 34.9936 89.496 34.9936 88.428C34.9936 87.828 34.7296 87.084 33.5296 86.784L32.6776 86.58C32.3296 86.496 32.0056 86.304 32.0056 85.956C32.0056 85.572 32.3416 85.248 32.8336 85.248C33.2536 85.248 33.6736 85.524 33.6736 85.932H34.8016C34.8016 84.756 33.7696 84.252 32.8096 84.252C31.6456 84.252 30.8176 85.008 30.8176 85.92C30.8176 86.748 31.2976 87.288 32.3416 87.564L33.0976 87.744C33.5176 87.84 33.8176 88.032 33.8176 88.404C33.8176 88.824 33.4216 89.148 32.7736 89.148C32.1376 89.148 31.7416 88.764 31.7416 88.32H30.6496C30.6736 89.496 31.7416 90.144 32.7856 90.144ZM39.3662 84.252C38.7662 84.252 37.8662 84.564 37.5422 85.248V81.348H36.3662V90H37.5422V86.988C37.5422 85.836 38.4302 85.404 39.1622 85.404C39.8822 85.404 40.4342 85.956 40.4342 86.868V90H41.6102V86.796C41.6222 85.2 40.7822 84.252 39.3662 84.252ZM46.412 84.252C45.62 84.252 44.84 84.588 44.468 85.224V81.348H43.292V90H44.468V89.16C44.84 89.796 45.656 90.144 46.412 90.144C47.924 90.144 49.196 88.968 49.196 87.192C49.196 85.404 47.936 84.252 46.412 84.252ZM46.268 89.04C45.332 89.04 44.48 88.308 44.48 87.18C44.48 86.052 45.404 85.356 46.268 85.356C47.24 85.356 48.008 86.124 48.008 87.18C48.008 88.224 47.24 89.04 46.268 89.04ZM53.1728 90.144C54.7688 90.144 56.1248 88.968 56.1248 87.192C56.1248 85.416 54.7688 84.252 53.1728 84.252C51.5768 84.252 50.2328 85.416 50.2328 87.192C50.2328 88.968 51.5768 90.144 53.1728 90.144ZM53.1728 89.04C52.2128 89.04 51.4088 88.284 51.4088 87.192C51.4088 86.112 52.2128 85.356 53.1728 85.356C54.1328 85.356 54.9488 86.112 54.9488 87.192C54.9488 88.284 54.1328 89.04 53.1728 89.04ZM61.8746 85.236C61.5146 84.6 60.7466 84.252 59.9306 84.252C58.3466 84.252 57.1586 85.524 57.1586 87.192C57.1586 88.92 58.4186 90.144 59.8826 90.144C60.7466 90.144 61.5146 89.7 61.8746 89.052V90H63.0506V84.396H61.8746V85.236ZM60.0866 89.04C59.1026 89.04 58.3466 88.2 58.3466 87.192C58.3466 86.196 59.1026 85.356 60.0626 85.356C60.9626 85.356 61.8626 86.112 61.8626 87.192C61.8626 88.248 61.0226 89.04 60.0866 89.04ZM67.5794 84.252C66.8594 84.252 66.2954 84.672 66.0074 85.656V84.396H64.8194V90H66.0074V87.984C66.0074 86.472 66.4874 85.38 67.5074 85.38C67.7354 85.38 68.0234 85.428 68.3354 85.572L68.5394 84.456C68.3594 84.348 67.9634 84.252 67.5794 84.252ZM73.7225 85.224C73.3505 84.588 72.5705 84.252 71.7785 84.252C70.2665 84.252 69.0065 85.404 69.0065 87.192C69.0065 88.968 70.2665 90.144 71.7905 90.144C72.5465 90.144 73.3505 89.796 73.7225 89.16V90H74.8985V81.348H73.7225V85.224ZM71.9225 89.04C70.9625 89.04 70.1825 88.224 70.1825 87.18C70.1825 86.124 70.9625 85.356 71.9225 85.356C72.7865 85.356 73.7105 86.052 73.7105 87.18C73.7105 88.308 72.8705 89.04 71.9225 89.04Z" fill="#1C295D"/>
<defs>
<filter id="filter0_d_0_5311" x="0" y="0" width="90" height="90" filterUnits="userSpaceOnUse" color-interpolation-filters="sRGB">
<feFlood flood-opacity="0" result="BackgroundImageFix"/>
<feColorMatrix in="SourceAlpha" type="matrix" values="0 0 0 0 0 0 0 0 0 0 0 0 0 0 0 0 0 0 127 0" result="hardAlpha"/>
<feOffset dy="10"/>
<feGaussianBlur stdDeviation="10"/>
<feColorMatrix type="matrix" values="0 0 0 0 0.345098 0 0 0 0 0.360784 0 0 0 0 0.898039 0 0 0 0.25 0"/>
<feBlend mode="normal" in2="BackgroundImageFix" result="effect1_dropShadow_0_5311"/>
<feBlend mode="normal" in="SourceGraphic" in2="effect1_dropShadow_0_5311" result="shape"/>
</filter>
</defs>
</svg>
