<svg width="77" height="81" viewBox="0 0 77 81" fill="none" xmlns="http://www.w3.org/2000/svg">
<rect x="13" width="50" height="50" rx="10" fill="#ECEFF7"/>
<path opacity="0.3" d="M31.8571 15H39.7364C40.0911 15 40.4343 15.1257 40.7051 15.3547L45.4687 19.3839C45.8057 19.6689 46 20.0879 46 20.5292V33.0833C46 34.8739 45.9796 35 44.1429 35H31.8571C30.0204 35 30 34.8739 30 33.0833V16.9167C30 15.1261 30.0204 15 31.8571 15Z" fill="#51459E"/>
<rect x="32" y="24" width="9" height="2" rx="1" fill="#51459E"/>
<rect x="32" y="28" width="5" height="2" rx="1" fill="#51459E"/>
<path d="M8.14334 71.732V80H11.3593C13.7233 80 15.1033 78.224 15.1033 75.884C15.1033 73.532 13.7233 71.732 11.3593 71.732H8.14334ZM9.37934 78.872V72.86H11.3593C13.0153 72.86 13.8673 74.204 13.8673 75.884C13.8673 77.564 13.0153 78.872 11.3593 78.872H9.37934ZM19.1435 80.144C20.7395 80.144 22.0955 78.968 22.0955 77.192C22.0955 75.416 20.7395 74.252 19.1435 74.252C17.5475 74.252 16.2035 75.416 16.2035 77.192C16.2035 78.968 17.5475 80.144 19.1435 80.144ZM19.1435 79.04C18.1835 79.04 17.3795 78.284 17.3795 77.192C17.3795 76.112 18.1835 75.356 19.1435 75.356C20.1035 75.356 20.9195 76.112 20.9195 77.192C20.9195 78.284 20.1035 79.04 19.1435 79.04ZM26.1413 80.144C27.0533 80.144 27.8333 79.772 28.3253 79.184L27.5453 78.452C27.2213 78.812 26.7293 79.04 26.1653 79.04C25.1213 79.04 24.2933 78.26 24.2933 77.192C24.2933 76.124 25.1213 75.356 26.1653 75.356C26.7293 75.356 27.2213 75.584 27.5453 75.944L28.3253 75.212C27.8333 74.624 27.0533 74.252 26.1413 74.252C24.5213 74.252 23.1173 75.416 23.1173 77.192C23.1173 78.968 24.5213 80.144 26.1413 80.144ZM33.5908 77.444C33.5908 78.608 32.7028 79.04 31.9708 79.04C31.2508 79.04 30.6988 78.488 30.6988 77.564V74.396H29.5228V77.6C29.5107 79.196 30.3628 80.144 31.7788 80.144C32.3668 80.144 33.2668 79.832 33.5908 79.148V80H34.7668V74.396H33.5908V77.444ZM43.2045 74.252C42.6405 74.252 41.7645 74.456 41.2845 75.428C40.9485 74.684 40.2645 74.252 39.4485 74.252C38.6805 74.252 37.9245 74.66 37.6965 75.32V74.396H36.5205V80H37.6965V76.988C37.6965 75.848 38.4405 75.38 39.1725 75.38C39.8685 75.38 40.3485 75.944 40.3485 76.856V80H41.5365V77.204C41.5365 76.028 42.0165 75.368 42.9405 75.38C43.6965 75.38 44.1765 75.944 44.1765 76.856V80H45.3645V76.796C45.3645 75.2 44.6085 74.252 43.2045 74.252ZM52.396 77.168C52.396 75.404 51.184 74.252 49.588 74.252C47.992 74.252 46.696 75.404 46.696 77.18C46.696 78.956 47.968 80.144 49.588 80.144C50.656 80.144 51.664 79.64 52.156 78.704L51.22 78.236C50.908 78.752 50.296 79.052 49.636 79.052C48.736 79.052 48.064 78.584 47.908 77.672H52.372C52.384 77.492 52.396 77.324 52.396 77.168ZM47.92 76.724C48.088 75.788 48.736 75.344 49.6 75.344C50.464 75.344 51.1 75.848 51.22 76.724H47.92ZM56.7705 74.252C56.1705 74.252 55.2705 74.564 54.9465 75.26V74.396H53.7705V80H54.9465V76.988C54.9465 75.824 55.8345 75.404 56.5665 75.404C57.2865 75.404 57.8385 75.956 57.8385 76.868V80H59.0145V76.796C59.0265 75.2 58.1865 74.252 56.7705 74.252ZM62.27 74.396V72.296H61.094V74.396H60.086V75.38H61.094V80H62.27V75.38H63.47V74.396H62.27ZM66.2681 80.144C67.4201 80.144 68.4761 79.496 68.4761 78.428C68.4761 77.828 68.2121 77.084 67.0121 76.784L66.1601 76.58C65.8121 76.496 65.4881 76.304 65.4881 75.956C65.4881 75.572 65.8241 75.248 66.3161 75.248C66.7361 75.248 67.1561 75.524 67.1561 75.932H68.2841C68.2841 74.756 67.2521 74.252 66.2921 74.252C65.1281 74.252 64.3001 75.008 64.3001 75.92C64.3001 76.748 64.7801 77.288 65.8241 77.564L66.5801 77.744C67.0001 77.84 67.3001 78.032 67.3001 78.404C67.3001 78.824 66.9041 79.148 66.2561 79.148C65.6201 79.148 65.2241 78.764 65.2241 78.32H64.1321C64.1561 79.496 65.2241 80.144 66.2681 80.144Z" fill="#7987A5"/>
</svg>
