<svg width="77" height="81" viewBox="0 0 77 81" fill="none" xmlns="http://www.w3.org/2000/svg">
<rect x="13" width="50" height="50" rx="10" fill="#ECEFF7"/>
<path d="M42.5 17.5C40.8905 17.5 39.0082 19.3246 38 20.5C36.9918 19.3246 35.1095 17.5 33.5 17.5C30.651 17.5 29 19.7222 29 22.5504C29 27.25 38 32.5 38 32.5C38 32.5 47 27.25 47 22.75C47 19.9218 45.349 17.5 42.5 17.5Z" fill="#51459E"/>
<path d="M19.1914 71.732H14.3074V80H15.5434V76.496H18.4354V75.368H15.5434V72.86H19.1914V71.732ZM24.3414 75.236C23.9814 74.6 23.2134 74.252 22.3974 74.252C20.8134 74.252 19.6254 75.524 19.6254 77.192C19.6254 78.92 20.8854 80.144 22.3494 80.144C23.2134 80.144 23.9814 79.7 24.3414 79.052V80H25.5174V74.396H24.3414V75.236ZM22.5534 79.04C21.5694 79.04 20.8134 78.2 20.8134 77.192C20.8134 76.196 21.5694 75.356 22.5294 75.356C23.4294 75.356 24.3294 76.112 24.3294 77.192C24.3294 78.248 23.4894 79.04 22.5534 79.04ZM29.4462 78.476L27.8142 74.396H26.5542L28.8942 80H30.0102L32.3502 74.396H31.0782L29.4462 78.476ZM35.8076 80.144C37.4036 80.144 38.7596 78.968 38.7596 77.192C38.7596 75.416 37.4036 74.252 35.8076 74.252C34.2116 74.252 32.8676 75.416 32.8676 77.192C32.8676 78.968 34.2116 80.144 35.8076 80.144ZM35.8076 79.04C34.8476 79.04 34.0436 78.284 34.0436 77.192C34.0436 76.112 34.8476 75.356 35.8076 75.356C36.7676 75.356 37.5836 76.112 37.5836 77.192C37.5836 78.284 36.7676 79.04 35.8076 79.04ZM42.9133 74.252C42.1933 74.252 41.6293 74.672 41.3413 75.656V74.396H40.1533V80H41.3413V77.984C41.3413 76.472 41.8213 75.38 42.8413 75.38C43.0693 75.38 43.3573 75.428 43.6693 75.572L43.8733 74.456C43.6933 74.348 43.2973 74.252 42.9133 74.252ZM45.4523 73.112C45.8963 73.112 46.2563 72.788 46.2563 72.356C46.2563 71.924 45.8963 71.6 45.4523 71.6C45.0203 71.6 44.6483 71.924 44.6483 72.356C44.6483 72.788 45.0203 73.112 45.4523 73.112ZM46.0403 80V74.396H44.8643V80H46.0403ZM49.4497 74.396V72.296H48.2737V74.396H47.2657V75.38H48.2737V80H49.4497V75.38H50.6497V74.396H49.4497ZM57.0014 77.168C57.0014 75.404 55.7894 74.252 54.1934 74.252C52.5974 74.252 51.3014 75.404 51.3014 77.18C51.3014 78.956 52.5734 80.144 54.1934 80.144C55.2614 80.144 56.2694 79.64 56.7614 78.704L55.8254 78.236C55.5134 78.752 54.9014 79.052 54.2414 79.052C53.3414 79.052 52.6694 78.584 52.5134 77.672H56.9774C56.9894 77.492 57.0014 77.324 57.0014 77.168ZM52.5254 76.724C52.6934 75.788 53.3414 75.344 54.2054 75.344C55.0694 75.344 55.7054 75.848 55.8254 76.724H52.5254ZM60.104 80.144C61.256 80.144 62.312 79.496 62.312 78.428C62.312 77.828 62.048 77.084 60.848 76.784L59.996 76.58C59.648 76.496 59.324 76.304 59.324 75.956C59.324 75.572 59.66 75.248 60.152 75.248C60.572 75.248 60.992 75.524 60.992 75.932H62.12C62.12 74.756 61.088 74.252 60.128 74.252C58.964 74.252 58.136 75.008 58.136 75.92C58.136 76.748 58.616 77.288 59.66 77.564L60.416 77.744C60.836 77.84 61.136 78.032 61.136 78.404C61.136 78.824 60.74 79.148 60.092 79.148C59.456 79.148 59.06 78.764 59.06 78.32H57.968C57.992 79.496 59.06 80.144 60.104 80.144Z" fill="#7987A5"/>
</svg>
