<svg width="77" height="81" viewBox="0 0 77 81" fill="none" xmlns="http://www.w3.org/2000/svg">
<rect x="13" width="50" height="50" rx="10" fill="#ECEFF7"/>
<path fill-rule="evenodd" clip-rule="evenodd" d="M31 20C29.8954 20 29 20.8954 29 22V30C29 31.1046 29.8954 32 31 32H45C46.1046 32 47 31.1046 47 30V22C47 20.8954 46.1046 20 45 20H31ZM34 26C34 28.2091 35.7909 30 38 30C40.2091 30 42 28.2091 42 26C42 23.7909 40.2091 22 38 22C35.7909 22 34 23.7909 34 26Z" fill="#51459E"/>
<rect opacity="0.3" x="35" y="17" width="6" height="2" rx="1" fill="#51459E"/>
<path opacity="0.3" fill-rule="evenodd" clip-rule="evenodd" d="M38 28C39.1046 28 40 27.1046 40 26C40 24.8954 39.1046 24 38 24C36.8954 24 36 24.8954 36 26C36 27.1046 36.8954 28 38 28Z" fill="#51459E"/>
<path d="M17.2019 71.732V80H18.4379V76.94H20.5139C22.2899 76.94 23.0339 75.668 23.0339 74.348C23.0339 73.04 22.2899 71.732 20.5139 71.732H17.2019ZM18.4379 75.812V72.86H20.4899C21.4139 72.86 21.7979 73.616 21.7979 74.348C21.7979 75.08 21.4019 75.812 20.4419 75.812H18.4379ZM24.8742 73.112C25.3182 73.112 25.6782 72.788 25.6782 72.356C25.6782 71.924 25.3182 71.6 24.8742 71.6C24.4422 71.6 24.0702 71.924 24.0702 72.356C24.0702 72.788 24.4422 73.112 24.8742 73.112ZM25.4622 80V74.396H24.2862V80H25.4622ZM29.8796 80.144C30.7916 80.144 31.5716 79.772 32.0636 79.184L31.2836 78.452C30.9596 78.812 30.4676 79.04 29.9036 79.04C28.8596 79.04 28.0316 78.26 28.0316 77.192C28.0316 76.124 28.8596 75.356 29.9036 75.356C30.4676 75.356 30.9596 75.584 31.2836 75.944L32.0636 75.212C31.5716 74.624 30.7916 74.252 29.8796 74.252C28.2596 74.252 26.8556 75.416 26.8556 77.192C26.8556 78.968 28.2596 80.144 29.8796 80.144ZM34.977 74.396V72.296H33.801V74.396H32.793V75.38H33.801V80H34.977V75.38H36.177V74.396H34.977ZM41.29 77.444C41.29 78.608 40.402 79.04 39.67 79.04C38.95 79.04 38.398 78.488 38.398 77.564V74.396H37.222V77.6C37.21 79.196 38.062 80.144 39.478 80.144C40.066 80.144 40.966 79.832 41.29 79.148V80H42.466V74.396H41.29V77.444ZM46.9798 74.252C46.2598 74.252 45.6958 74.672 45.4078 75.656V74.396H44.2198V80H45.4078V77.984C45.4078 76.472 45.8878 75.38 46.9078 75.38C47.1358 75.38 47.4238 75.428 47.7358 75.572L47.9398 74.456C47.7598 74.348 47.3638 74.252 46.9798 74.252ZM54.1069 77.168C54.1069 75.404 52.8949 74.252 51.2989 74.252C49.7029 74.252 48.4069 75.404 48.4069 77.18C48.4069 78.956 49.6789 80.144 51.2989 80.144C52.3669 80.144 53.3749 79.64 53.8669 78.704L52.9309 78.236C52.6189 78.752 52.0069 79.052 51.3469 79.052C50.4469 79.052 49.7749 78.584 49.6189 77.672H54.0829C54.0949 77.492 54.1069 77.324 54.1069 77.168ZM49.6309 76.724C49.7989 75.788 50.4469 75.344 51.3109 75.344C52.1749 75.344 52.8109 75.848 52.9309 76.724H49.6309ZM57.2095 80.144C58.3615 80.144 59.4175 79.496 59.4175 78.428C59.4175 77.828 59.1535 77.084 57.9535 76.784L57.1015 76.58C56.7535 76.496 56.4295 76.304 56.4295 75.956C56.4295 75.572 56.7655 75.248 57.2575 75.248C57.6775 75.248 58.0975 75.524 58.0975 75.932H59.2255C59.2255 74.756 58.1935 74.252 57.2335 74.252C56.0695 74.252 55.2415 75.008 55.2415 75.92C55.2415 76.748 55.7215 77.288 56.7655 77.564L57.5215 77.744C57.9415 77.84 58.2415 78.032 58.2415 78.404C58.2415 78.824 57.8455 79.148 57.1975 79.148C56.5615 79.148 56.1655 78.764 56.1655 78.32H55.0735C55.0975 79.496 56.1655 80.144 57.2095 80.144Z" fill="#7987A5"/>
</svg>
