<svg width="77" height="83" viewBox="0 0 77 83" fill="none" xmlns="http://www.w3.org/2000/svg">
<rect x="13" width="50" height="50" rx="10" fill="#ECEFF7"/>
<path fill-rule="evenodd" clip-rule="evenodd" d="M46 22H41V17C41 17 41 16 40 16C39 16 39 17 39 17V24H46C46 24 47 23.8284 47 23C47 22.1716 46 22 46 22ZM31 27H36V32C36 32 36 33 37 33C38 33 38 32 38 32V25H31C31 25 30 25.1716 30 26C30 26.8284 31 27 31 27Z" fill="#51459E"/>
<path opacity="0.3" fill-rule="evenodd" clip-rule="evenodd" d="M42.8787 18.7071C42.4882 19.0976 42.4882 19.7308 42.8787 20.1213C43.2692 20.5118 43.9024 20.5118 44.2929 20.1213L47.1213 17.2929C47.5119 16.9024 47.5119 16.2692 47.1213 15.8787C46.7308 15.4882 46.0977 15.4882 45.7071 15.8787L42.8787 18.7071ZM29.8787 31.7071C29.4882 32.0976 29.4882 32.7308 29.8787 33.1213C30.2692 33.5118 30.9024 33.5118 31.2929 33.1213L34.1213 30.2929C34.5119 29.9024 34.5119 29.2692 34.1213 28.8787C33.7308 28.4882 33.0977 28.4882 32.7071 28.8787L29.8787 31.7071Z" fill="#51459E"/>
<path d="M23.304 80L21.132 76.916C22.512 76.784 23.232 75.536 23.232 74.348C23.232 73.04 22.5 71.732 20.688 71.732H17.532V80H18.768V76.916H19.704L21.828 80H23.304ZM20.676 72.86C21.48 72.86 21.996 73.484 21.996 74.348C21.996 75.224 21.528 75.836 20.388 75.836H18.768V72.86H20.676ZM29.8745 77.168C29.8745 75.404 28.6625 74.252 27.0665 74.252C25.4705 74.252 24.1745 75.404 24.1745 77.18C24.1745 78.956 25.4465 80.144 27.0665 80.144C28.1345 80.144 29.1425 79.64 29.6345 78.704L28.6985 78.236C28.3865 78.752 27.7745 79.052 27.1145 79.052C26.2145 79.052 25.5425 78.584 25.3865 77.672H29.8505C29.8625 77.492 29.8745 77.324 29.8745 77.168ZM25.3985 76.724C25.5665 75.788 26.2145 75.344 27.0785 75.344C27.9425 75.344 28.5785 75.848 28.6985 76.724H25.3985ZM35.617 75.236C35.245 74.6 34.441 74.252 33.685 74.252C32.161 74.252 30.901 75.428 30.901 77.204C30.901 78.992 32.161 80.144 33.673 80.144C34.465 80.144 35.245 79.808 35.617 79.172V82.724H36.793V74.396H35.617V75.236ZM33.817 79.04C32.857 79.04 32.077 78.272 32.077 77.216C32.077 76.16 32.857 75.356 33.817 75.356C34.765 75.356 35.605 76.088 35.605 77.216C35.605 78.344 34.681 79.04 33.817 79.04ZM42.5458 77.444C42.5458 78.608 41.6578 79.04 40.9258 79.04C40.2058 79.04 39.6538 78.488 39.6538 77.564V74.396H38.4778V77.6C38.4658 79.196 39.3178 80.144 40.7338 80.144C41.3218 80.144 42.2218 79.832 42.5458 79.148V80H43.7218V74.396H42.5458V77.444ZM50.8276 77.168C50.8276 75.404 49.6156 74.252 48.0196 74.252C46.4236 74.252 45.1276 75.404 45.1276 77.18C45.1276 78.956 46.3996 80.144 48.0196 80.144C49.0876 80.144 50.0956 79.64 50.5876 78.704L49.6516 78.236C49.3396 78.752 48.7276 79.052 48.0676 79.052C47.1676 79.052 46.4956 78.584 46.3396 77.672H50.8036C50.8156 77.492 50.8276 77.324 50.8276 77.168ZM46.3516 76.724C46.5196 75.788 47.1676 75.344 48.0316 75.344C48.8956 75.344 49.5316 75.848 49.6516 76.724H46.3516ZM53.9302 80.144C55.0822 80.144 56.1382 79.496 56.1382 78.428C56.1382 77.828 55.8742 77.084 54.6742 76.784L53.8222 76.58C53.4742 76.496 53.1502 76.304 53.1502 75.956C53.1502 75.572 53.4862 75.248 53.9782 75.248C54.3982 75.248 54.8182 75.524 54.8182 75.932H55.9462C55.9462 74.756 54.9142 74.252 53.9542 74.252C52.7902 74.252 51.9622 75.008 51.9622 75.92C51.9622 76.748 52.4422 77.288 53.4862 77.564L54.2422 77.744C54.6622 77.84 54.9622 78.032 54.9622 78.404C54.9622 78.824 54.5662 79.148 53.9182 79.148C53.2822 79.148 52.8862 78.764 52.8862 78.32H51.7942C51.8182 79.496 52.8862 80.144 53.9302 80.144ZM59.143 74.396V72.296H57.967V74.396H56.959V75.38H57.967V80H59.143V75.38H60.343V74.396H59.143Z" fill="#7987A5"/>
</svg>
