<svg width="77" height="81" viewBox="0 0 77 81" fill="none" xmlns="http://www.w3.org/2000/svg">
<rect x="13" width="50" height="50" rx="10" fill="#ECEFF7"/>
<path fill-rule="evenodd" clip-rule="evenodd" d="M46 23.793C45.5232 23.9278 45.02 24 44.5 24C41.4624 24 39 21.5376 39 18.5C39 17.98 39.0722 17.4768 39.207 17H33C31.3431 17 30 18.3431 30 20V30C30 31.6569 31.3431 33 33 33H43C44.6569 33 46 31.6569 46 30V23.793Z" fill="#51459E"/>
<path opacity="0.3" fill-rule="evenodd" clip-rule="evenodd" d="M44.5 21C45.8807 21 47 19.8807 47 18.5C47 17.1193 45.8807 16 44.5 16C43.1193 16 42 17.1193 42 18.5C42 19.8807 43.1193 21 44.5 21Z" fill="#51459E"/>
<path d="M26.1497 80L23.9777 76.916C25.3577 76.784 26.0777 75.536 26.0777 74.348C26.0777 73.04 25.3457 71.732 23.5337 71.732H20.3777V80H21.6137V76.916H22.5497L24.6737 80H26.1497ZM23.5217 72.86C24.3257 72.86 24.8417 73.484 24.8417 74.348C24.8417 75.224 24.3737 75.836 23.2337 75.836H21.6137V72.86H23.5217ZM32.7202 77.168C32.7202 75.404 31.5082 74.252 29.9122 74.252C28.3162 74.252 27.0202 75.404 27.0202 77.18C27.0202 78.956 28.2922 80.144 29.9122 80.144C30.9802 80.144 31.9882 79.64 32.4802 78.704L31.5442 78.236C31.2322 78.752 30.6202 79.052 29.9602 79.052C29.0602 79.052 28.3882 78.584 28.2322 77.672H32.6962C32.7082 77.492 32.7202 77.324 32.7202 77.168ZM28.2442 76.724C28.4122 75.788 29.0602 75.344 29.9242 75.344C30.7882 75.344 31.4242 75.848 31.5442 76.724H28.2442ZM36.7467 80.144C37.6588 80.144 38.4388 79.772 38.9308 79.184L38.1508 78.452C37.8268 78.812 37.3348 79.04 36.7708 79.04C35.7268 79.04 34.8988 78.26 34.8988 77.192C34.8988 76.124 35.7268 75.356 36.7708 75.356C37.3348 75.356 37.8268 75.584 38.1508 75.944L38.9308 75.212C38.4388 74.624 37.6588 74.252 36.7467 74.252C35.1268 74.252 33.7228 75.416 33.7228 77.192C33.7228 78.968 35.1268 80.144 36.7467 80.144ZM45.4233 77.168C45.4233 75.404 44.2113 74.252 42.6153 74.252C41.0193 74.252 39.7233 75.404 39.7233 77.18C39.7233 78.956 40.9953 80.144 42.6153 80.144C43.6833 80.144 44.6913 79.64 45.1833 78.704L44.2473 78.236C43.9353 78.752 43.3233 79.052 42.6633 79.052C41.7633 79.052 41.0913 78.584 40.9353 77.672H45.3993C45.4113 77.492 45.4233 77.324 45.4233 77.168ZM40.9473 76.724C41.1153 75.788 41.7633 75.344 42.6273 75.344C43.4913 75.344 44.1273 75.848 44.2473 76.724H40.9473ZM49.7979 74.252C49.1979 74.252 48.2979 74.564 47.9739 75.26V74.396H46.7979V80H47.9739V76.988C47.9739 75.824 48.8619 75.404 49.5939 75.404C50.3139 75.404 50.8659 75.956 50.8659 76.868V80H52.0419V76.796C52.0539 75.2 51.2139 74.252 49.7979 74.252ZM55.2973 74.396V72.296H54.1213V74.396H53.1133V75.38H54.1213V80H55.2973V75.38H56.4973V74.396H55.2973Z" fill="#7987A5"/>
</svg>
