<svg width="77" height="81" viewBox="0 0 77 81" fill="none" xmlns="http://www.w3.org/2000/svg">
<rect x="13" width="50" height="50" rx="10" fill="#ECEFF7"/>
<path opacity="0.3" d="M36.9 15C37.4523 15 37.9 15.4477 37.9 16C37.9 16.5523 37.4523 17 36.9 17H32C30.8954 17 30 17.8954 30 19V31C30 32.1046 30.8954 33 32 33H44C45.1046 33 46 32.1046 46 31V29C46 28.4477 46.4477 28 47 28C47.5523 28 48 28.4477 48 29V31C48 33.2091 46.2091 35 44 35H32C29.7909 35 28 33.2091 28 31V19C28 16.7909 29.7909 15 32 15H36.9Z" fill="#51459E"/>
<path d="M33.0045 26.8973C33.0045 26.1346 32.8411 23.1246 35.2155 20.7366C36.8136 19.1294 39.2053 18.8507 42.0654 18.7236V14.8379C42.0654 14.1872 42.8374 13.8452 43.3194 14.2824L49.8275 20.1868C50.1534 20.4824 50.156 20.9936 49.8332 21.2926L43.325 27.3198C42.8449 27.7645 42.0654 27.4239 42.0654 26.7695V22.9076C40.2494 22.9576 38.9559 23.0731 37.7806 23.447C35.509 24.1696 34.1611 27.2685 33.7976 28.2124C33.7349 28.3752 33.5797 28.4863 33.4053 28.4863V28.4863C33.1814 28.4863 33.0001 28.305 33.0008 28.0812C33.0021 27.6691 33.0045 27.1955 33.0045 26.8973Z" fill="#51459E"/>
<path d="M21.7177 80.144C23.3857 80.144 24.5137 79.028 24.5137 77.648C24.5137 76.436 23.6377 75.728 22.2457 75.356L21.2017 75.068C20.1577 74.792 20.0737 74.252 20.0737 73.988C20.0737 73.232 20.7697 72.716 21.5497 72.716C22.4017 72.716 23.0137 73.256 23.0137 74.036H24.2377C24.2377 72.524 23.0737 71.588 21.5857 71.588C20.1217 71.588 18.8377 72.56 18.8377 74.012C18.8377 74.696 19.1257 75.74 20.8897 76.184L21.9457 76.448C22.6177 76.628 23.2777 76.976 23.2777 77.708C23.2777 78.392 22.7017 79.016 21.7177 79.016C20.6857 79.016 20.0257 78.332 20.0017 77.624H18.7777C18.7777 78.956 19.9537 80.144 21.7177 80.144ZM28.9092 74.252C28.3092 74.252 27.4092 74.564 27.0852 75.248V71.348H25.9092V80H27.0852V76.988C27.0852 75.836 27.9732 75.404 28.7052 75.404C29.4252 75.404 29.9772 75.956 29.9772 76.868V80H31.1532V76.796C31.1652 75.2 30.3252 74.252 28.9092 74.252ZM37.191 75.236C36.831 74.6 36.063 74.252 35.247 74.252C33.663 74.252 32.475 75.524 32.475 77.192C32.475 78.92 33.735 80.144 35.199 80.144C36.063 80.144 36.831 79.7 37.191 79.052V80H38.367V74.396H37.191V75.236ZM35.403 79.04C34.419 79.04 33.663 78.2 33.663 77.192C33.663 76.196 34.419 75.356 35.379 75.356C36.279 75.356 37.179 76.112 37.179 77.192C37.179 78.248 36.339 79.04 35.403 79.04ZM42.8958 74.252C42.1758 74.252 41.6118 74.672 41.3238 75.656V74.396H40.1358V80H41.3238V77.984C41.3238 76.472 41.8038 75.38 42.8238 75.38C43.0518 75.38 43.3398 75.428 43.6518 75.572L43.8558 74.456C43.6758 74.348 43.2798 74.252 42.8958 74.252ZM50.0229 77.168C50.0229 75.404 48.8109 74.252 47.2149 74.252C45.6189 74.252 44.3229 75.404 44.3229 77.18C44.3229 78.956 45.5949 80.144 47.2149 80.144C48.2829 80.144 49.2909 79.64 49.7829 78.704L48.8469 78.236C48.5349 78.752 47.9229 79.052 47.2629 79.052C46.3629 79.052 45.6909 78.584 45.5349 77.672H49.9989C50.0109 77.492 50.0229 77.324 50.0229 77.168ZM45.5469 76.724C45.7149 75.788 46.3629 75.344 47.2269 75.344C48.0909 75.344 48.7269 75.848 48.8469 76.724H45.5469ZM55.7655 75.224C55.3935 74.588 54.6135 74.252 53.8215 74.252C52.3095 74.252 51.0495 75.404 51.0495 77.192C51.0495 78.968 52.3095 80.144 53.8335 80.144C54.5895 80.144 55.3935 79.796 55.7655 79.16V80H56.9415V71.348H55.7655V75.224ZM53.9655 79.04C53.0055 79.04 52.2255 78.224 52.2255 77.18C52.2255 76.124 53.0055 75.356 53.9655 75.356C54.8295 75.356 55.7535 76.052 55.7535 77.18C55.7535 78.308 54.9135 79.04 53.9655 79.04Z" fill="#7987A5"/>
</svg>
