<svg width="77" height="83" viewBox="0 0 77 83" fill="none" xmlns="http://www.w3.org/2000/svg">
<rect x="13" width="50" height="50" rx="10" fill="#ECEFF7"/>
<path opacity="0.3" d="M31.8571 15H39.7364C40.0911 15 40.4343 15.1257 40.7051 15.3547L45.4687 19.3839C45.8057 19.6689 46 20.0879 46 20.5292V33.0833C46 34.8739 45.9796 35 44.1429 35H31.8571C30.0204 35 30 34.8739 30 33.0833V16.9167C30 15.1261 30.0204 15 31.8571 15Z" fill="#51459E"/>
<rect x="33" y="30" width="9" height="1" rx="0.5" fill="#51459E"/>
<path d="M42.1692 21.7096C42.755 22.2953 42.755 23.2451 42.1692 23.8309L37.8574 28.1427C37.5872 28.413 37.2239 28.5699 36.8418 28.5813L35.8709 28.6105C35.0165 28.6362 34.3134 27.9437 34.326 27.089L34.3395 26.1805C34.3452 25.7904 34.5028 25.4179 34.7786 25.142L39.1295 20.7911C39.7153 20.2054 40.665 20.2054 41.2508 20.7911L42.1692 21.7096Z" fill="#51459E"/>
<path d="M23.0146 80.144C24.6826 80.144 25.8106 79.028 25.8106 77.648C25.8106 76.436 24.9346 75.728 23.5426 75.356L22.4986 75.068C21.4546 74.792 21.3706 74.252 21.3706 73.988C21.3706 73.232 22.0666 72.716 22.8466 72.716C23.6986 72.716 24.3106 73.256 24.3106 74.036H25.5346C25.5346 72.524 24.3706 71.588 22.8826 71.588C21.4186 71.588 20.1346 72.56 20.1346 74.012C20.1346 74.696 20.4226 75.74 22.1866 76.184L23.2426 76.448C23.9146 76.628 24.5746 76.976 24.5746 77.708C24.5746 78.392 23.9986 79.016 23.0146 79.016C21.9826 79.016 21.3226 78.332 21.2986 77.624H20.0746C20.0746 78.956 21.2506 80.144 23.0146 80.144ZM27.7941 73.112C28.2381 73.112 28.5981 72.788 28.5981 72.356C28.5981 71.924 28.2381 71.6 27.7941 71.6C27.3621 71.6 26.9901 71.924 26.9901 72.356C26.9901 72.788 27.3621 73.112 27.7941 73.112ZM28.3821 80V74.396H27.2061V80H28.3821ZM34.5155 75.212C34.1315 74.588 33.3515 74.252 32.5715 74.252C31.0595 74.252 29.7995 75.404 29.7995 77.192C29.7995 78.968 31.0595 80.144 32.5835 80.144C33.3275 80.144 34.1315 79.796 34.5155 79.184V79.328C34.5155 81.104 33.7835 81.776 32.6075 81.776C31.9955 81.776 31.3475 81.428 31.0355 80.828L30.0395 81.32C30.5675 82.316 31.5515 82.868 32.6075 82.868C34.4915 82.868 35.6915 81.836 35.6915 79.232V74.396H34.5155V75.212ZM32.7155 79.04C31.7555 79.04 30.9755 78.224 30.9755 77.18C30.9755 76.124 31.7555 75.356 32.7155 75.356C33.5795 75.356 34.5035 76.052 34.5035 77.18C34.5035 78.308 33.6635 79.04 32.7155 79.04ZM40.4483 74.252C39.8483 74.252 38.9483 74.564 38.6243 75.26V74.396H37.4483V80H38.6243V76.988C38.6243 75.824 39.5123 75.404 40.2443 75.404C40.9643 75.404 41.5163 75.956 41.5163 76.868V80H42.6923V76.796C42.7043 75.2 41.8643 74.252 40.4483 74.252ZM49.726 77.168C49.726 75.404 48.514 74.252 46.918 74.252C45.322 74.252 44.026 75.404 44.026 77.18C44.026 78.956 45.298 80.144 46.918 80.144C47.986 80.144 48.994 79.64 49.486 78.704L48.55 78.236C48.238 78.752 47.626 79.052 46.966 79.052C46.066 79.052 45.394 78.584 45.238 77.672H49.702C49.714 77.492 49.726 77.324 49.726 77.168ZM45.25 76.724C45.418 75.788 46.066 75.344 46.93 75.344C47.794 75.344 48.43 75.848 48.55 76.724H45.25ZM55.4686 75.224C55.0966 74.588 54.3166 74.252 53.5246 74.252C52.0126 74.252 50.7526 75.404 50.7526 77.192C50.7526 78.968 52.0126 80.144 53.5366 80.144C54.2926 80.144 55.0966 79.796 55.4686 79.16V80H56.6446V71.348H55.4686V75.224ZM53.6686 79.04C52.7086 79.04 51.9286 78.224 51.9286 77.18C51.9286 76.124 52.7086 75.356 53.6686 75.356C54.5326 75.356 55.4566 76.052 55.4566 77.18C55.4566 78.308 54.6166 79.04 53.6686 79.04Z" fill="#7987A5"/>
</svg>
