<svg width="77" height="81" viewBox="0 0 77 81" fill="none" xmlns="http://www.w3.org/2000/svg">
<rect x="13" width="50" height="50" rx="10" fill="#ECEFF7"/>
<rect x="28" y="19" width="13" height="12" rx="2" fill="#51459E"/>
<path opacity="0.3" fill-rule="evenodd" clip-rule="evenodd" d="M46.2929 20.7071C46.9228 20.0771 48 20.5233 48 21.4142V28.5858C48 29.4767 46.9228 29.9229 46.2929 29.2929L42.7071 25.7071C42.3166 25.3166 42.3166 24.6834 42.7071 24.2929L46.2929 20.7071Z" fill="#51459E"/>
<path d="M23.3952 77.948L21.5952 71.732H20.3232L22.8312 80H23.9832L26.4672 71.732H25.1952L23.3952 77.948ZM28.2257 73.112C28.6697 73.112 29.0297 72.788 29.0297 72.356C29.0297 71.924 28.6697 71.6 28.2257 71.6C27.7937 71.6 27.4217 71.924 27.4217 72.356C27.4217 72.788 27.7937 73.112 28.2257 73.112ZM28.8137 80V74.396H27.6377V80H28.8137ZM34.9471 75.224C34.5751 74.588 33.7951 74.252 33.0031 74.252C31.4911 74.252 30.2311 75.404 30.2311 77.192C30.2311 78.968 31.4911 80.144 33.0151 80.144C33.7711 80.144 34.5751 79.796 34.9471 79.16V80H36.1231V71.348H34.9471V75.224ZM33.1471 79.04C32.1871 79.04 31.4071 78.224 31.4071 77.18C31.4071 76.124 32.1871 75.356 33.1471 75.356C34.0111 75.356 34.9351 76.052 34.9351 77.18C34.9351 78.308 34.0951 79.04 33.1471 79.04ZM43.2319 77.168C43.2319 75.404 42.0199 74.252 40.4239 74.252C38.8279 74.252 37.5319 75.404 37.5319 77.18C37.5319 78.956 38.8039 80.144 40.4239 80.144C41.4919 80.144 42.4999 79.64 42.9919 78.704L42.0559 78.236C41.7439 78.752 41.1319 79.052 40.4719 79.052C39.5719 79.052 38.8999 78.584 38.7439 77.672H43.2079C43.2199 77.492 43.2319 77.324 43.2319 77.168ZM38.7559 76.724C38.9239 75.788 39.5719 75.344 40.4359 75.344C41.2999 75.344 41.9359 75.848 42.0559 76.724H38.7559ZM47.1865 80.144C48.7825 80.144 50.1385 78.968 50.1385 77.192C50.1385 75.416 48.7825 74.252 47.1865 74.252C45.5905 74.252 44.2465 75.416 44.2465 77.192C44.2465 78.968 45.5905 80.144 47.1865 80.144ZM47.1865 79.04C46.2265 79.04 45.4225 78.284 45.4225 77.192C45.4225 76.112 46.2265 75.356 47.1865 75.356C48.1465 75.356 48.9625 76.112 48.9625 77.192C48.9625 78.284 48.1465 79.04 47.1865 79.04ZM53.2603 80.144C54.4123 80.144 55.4683 79.496 55.4683 78.428C55.4683 77.828 55.2043 77.084 54.0043 76.784L53.1523 76.58C52.8043 76.496 52.4803 76.304 52.4803 75.956C52.4803 75.572 52.8163 75.248 53.3083 75.248C53.7283 75.248 54.1483 75.524 54.1483 75.932H55.2763C55.2763 74.756 54.2443 74.252 53.2843 74.252C52.1203 74.252 51.2923 75.008 51.2923 75.92C51.2923 76.748 51.7723 77.288 52.8163 77.564L53.5723 77.744C53.9923 77.84 54.2923 78.032 54.2923 78.404C54.2923 78.824 53.8963 79.148 53.2483 79.148C52.6123 79.148 52.2163 78.764 52.2163 78.32H51.1243C51.1483 79.496 52.2163 80.144 53.2603 80.144Z" fill="#7987A5"/>
</svg>
